# xmcd CD database file
#
# Track frame offsets:
#	150
#	24228
#	38689
#	64656
#	84881
#	99945
#	123534
#	136154
#	154370
#	178465
#	193645
#	210393
#	240157
#	256536
#	274472
#	292297
#	313447
#
# Disc length: 4453 seconds
#
# Revision: 0
# Processed by: cddbd v1.5PL3 Copyright (c) Steve Scherf et al.
# Submitted via: CDex 1.50
#
DISCID=ef116311
DTITLE=Salty Dogs w/Carol Leigh - In New  Orleans
DYEAR=2003
DGENRE=Jazz
TTITLE0=That's A Plenty
TTITLE1=Cresent City
TTITLE2=New Orleans Shuffle
TTITLE3=Way Down Yonder In New Orleans
TTITLE4=New Orleans
TTITLE5=Bourbon Street Parade
TTITLE6=Blues For Rampart Street
TTITLE7=South Rampart Street Parade
TTITLE8=Storyville Blues
TTITLE9=Goodbye To Storyville
TTITLE10=New Orleans Joys
TTITLE11=Ice Cream
TTITLE12=Come Up And See Me Sometime
TTITLE13=High Society
TTITLE14=Louisian-i-a
TTITLE15=Do You Know What It Means To Miss New Orleans?
TTITLE16=New Orleans Stomp
EXTD=YEAR: 2003
EXTT0=
EXTT1=
EXTT2=
EXTT3=
EXTT4=
EXTT5=
EXTT6=
EXTT7=
EXTT8=
EXTT9=
EXTT10=
EXTT11=
EXTT12=
EXTT13=
EXTT14=
EXTT15=
EXTT16=
PLAYORDER=
